<svg width="24" height="24" viewBox="0 0 24 24" fill="none" xmlns="http://www.w3.org/2000/svg">
<path d="M7 8C7 5.23858 9.23858 3 12 3C14.7614 3 17 5.23858 17 8V12H16V8C16 5.79086 14.2091 4 12 4C9.79086 4 8 5.79086 8 8V12H7V8Z" fill="#0D0D0D"/>
<path fill-rule="evenodd" clip-rule="evenodd" d="M5 17C5 18.8856 5 19.8284 5.58579 20.4142C6.17157 21 7.11438 21 9 21H15C16.8856 21 17.8284 21 18.4142 20.4142C19 19.8284 19 18.8856 19 17V15C19 13.1144 19 12.1716 18.4142 11.5858C17.8284 11 16.8856 11 15 11H9C7.11438 11 6.17157 11 5.58579 11.5858C5 12.1716 5 13.1144 5 15V17ZM8 12C7.05719 12 6.58579 12 6.29289 12.2929C6 12.5858 6 13.0572 6 14V18C6 18.9428 6 19.4142 6.29289 19.7071C6.58579 20 7.05719 20 8 20H16C16.9428 20 17.4142 20 17.7071 19.7071C18 19.4142 18 18.9428 18 18V14C18 13.0572 18 12.5858 17.7071 12.2929C17.4142 12 16.9428 12 16 12H8Z" fill="#0D0D0D"/>
<path d="M12.9284 17.5L15.5 14.2071C15.6953 14.0118 15.6953 13.6953 15.5 13.5C15.3047 13.3047 14.9882 13.3047 14.7929 13.5L12.0272 16.9659C12.0091 16.9886 11.9902 17.0105 11.9692 17.0306C11.8911 17.1057 11.6797 17.2929 11.5142 17.2929C11.3071 17.2929 11.1404 17.1262 10.807 16.7929L9.70711 15.7929C9.51185 15.5976 9.19526 15.5976 9 15.7929C8.80474 15.9882 8.80474 16.3047 9 16.5L10.0999 17.5C10.7666 18.1667 11.0999 18.5 11.5142 18.5C11.9284 18.5 12.5 18 12.9284 17.5Z" fill="#0D0D0D"/>
</svg>
