<svg width="24" height="24" viewBox="0 0 24 24" fill="none" xmlns="http://www.w3.org/2000/svg">
<path fill-rule="evenodd" clip-rule="evenodd" d="M19 5C19 3.11438 19 2.17157 18.4142 1.58579C17.8284 1 16.8856 1 15 1H9C7.11438 1 6.17157 1 5.58579 1.58579C5 2.17157 5 3.11438 5 5V19C5 20.8856 5 21.8284 5.58579 22.4142C6.17157 23 7.11438 23 9 23H15C16.8856 23 17.8284 23 18.4142 22.4142C19 21.8284 19 20.8856 19 19V5ZM18 3C18 2.44772 17.5523 2 17 2H7C6.44772 2 6 2.44772 6 3V4V18H18V4V3ZM6 19H18V20C18 20.9428 18 21.4142 17.7071 21.7071C17.4142 22 16.9428 22 16 22H8C7.05719 22 6.58579 22 6.29289 21.7071C6 21.4142 6 20.9428 6 20V19ZM12 21C11.7239 21 11.5 20.7761 11.5 20.5C11.5 20.2239 11.7239 20 12 20C12.2761 20 12.5 20.2239 12.5 20.5C12.5 20.7761 12.2761 21 12 21Z" fill="#0D0D0D"/>
<path d="M18 3H6V4H18V3Z" fill="#0D0D0D"/>
</svg>
