<svg width="54" height="47" viewBox="0 0 54 47" fill="none" xmlns="http://www.w3.org/2000/svg">
<path d="M43.9331 19.857C43.5536 19.857 42.2824 19.8682 41.9242 19.8905L34.6809 20.0803C34.6433 20.0826 34.6057 20.0744 34.5724 20.0567C34.5391 20.0389 34.5114 20.0123 34.4923 19.9798L20.0303 2.39732C19.9426 2.2812 19.8307 2.18553 19.7024 2.11693C19.574 2.04832 19.4323 2.00843 19.287 2H16.2859L24.4332 19.9686C24.4526 20.0098 24.461 20.0553 24.4576 20.1006C24.4541 20.146 24.4389 20.1897 24.4135 20.2274C24.388 20.2651 24.3532 20.2955 24.3125 20.3157C24.2717 20.3359 24.2264 20.3451 24.181 20.3425L10.5996 20.5434C10.4582 20.5477 10.3179 20.5186 10.1899 20.4585C10.0619 20.3984 9.94991 20.3089 9.86296 20.1974L5.73352 15.1751C5.3987 14.7399 4.77148 14.5055 4.22572 14.5055H2.12082C1.97685 14.5055 1.99805 14.6406 2.03712 14.7767L4.25139 22.7476C4.41877 23.1745 4.41877 23.6489 4.25139 24.0758L2.03488 32.0222C1.96904 32.2398 1.97685 32.357 2.23243 32.357H4.23242C5.14089 32.357 5.26478 32.2387 5.72906 31.6539L9.93663 26.5534C10.0243 26.4428 10.1365 26.354 10.2643 26.2939C10.3921 26.2339 10.5321 26.2043 10.6732 26.2075L24.1419 26.5088C24.1909 26.5099 24.239 26.523 24.2818 26.5469C24.3246 26.5708 24.361 26.6047 24.3877 26.6459C24.4145 26.687 24.4307 26.734 24.4352 26.7829C24.4396 26.8317 24.432 26.8809 24.4131 26.9262L16.2859 44.8569H19.2591C19.4041 44.8484 19.5456 44.8086 19.6737 44.7402C19.8018 44.6718 19.9136 44.5765 20.0013 44.4607L34.4934 26.8883C34.5369 26.8213 34.7166 26.7878 34.7936 26.7878L41.9253 26.9775C42.2936 26.9999 43.5536 27.011 43.9342 27.011C48.875 27.011 52 25.6528 52 23.4284C52 21.2041 48.8884 19.857 43.9331 19.857Z" stroke="black" stroke-width="3" stroke-linecap="round" stroke-linejoin="round"/>
</svg>
