<svg width="54" height="50" viewBox="0 0 54 50" fill="none" xmlns="http://www.w3.org/2000/svg">
<path d="M8.99917 2V15.9983M2 8.99917H15.9983M10.399 36.9958V48.1945M4.79967 42.5952H15.9983M25.8196 19.5903C19.8899 21.2869 16.925 22.1324 16.4967 23.6302C16.3538 24.1317 16.3538 24.663 16.4967 25.1644C16.925 26.6623 19.8899 27.5078 25.8196 29.2044C27.0094 29.5431 27.6029 29.7139 28.0537 30.0835C28.2159 30.2177 28.3624 30.3699 28.4904 30.537C28.846 30.9989 28.9972 31.6009 29.2967 32.8019C31.0185 39.6835 31.878 43.1243 33.4682 43.5526C33.9442 43.6814 34.4481 43.6814 34.9241 43.5526C36.5143 43.1271 37.3738 39.6835 39.0956 32.8019C39.3951 31.5981 39.5435 30.9989 39.9019 30.5342C40.0303 30.369 40.1768 30.2188 40.3386 30.0863C40.7866 29.7139 41.3829 29.5431 42.57 29.2044C48.5053 27.5078 51.4673 26.6623 51.8929 25.1644C52.0357 24.663 52.0357 24.1317 51.8929 23.6302C51.4673 22.1324 48.5053 21.2869 42.57 19.5903C41.3829 19.2515 40.7894 19.0808 40.3386 18.7112C40.1765 18.5769 40.0299 18.4248 39.9019 18.2577C39.5435 17.7957 39.3951 17.1938 39.0956 15.9927C37.3738 9.11115 36.5143 5.66756 34.9241 5.24201C34.4473 5.11363 33.945 5.11363 33.4682 5.24201C31.878 5.66756 31.0185 9.11115 29.2967 15.9927C28.9972 17.1966 28.8488 17.7957 28.4904 18.2605C28.3621 18.4256 28.2156 18.5759 28.0537 18.7084C27.6057 19.0808 27.0066 19.2515 25.8196 19.5903Z" stroke="black" stroke-width="3" stroke-linecap="round" stroke-linejoin="round"/>
</svg>
