<svg width="54" height="42" viewBox="0 0 54 42" fill="none" xmlns="http://www.w3.org/2000/svg">
<path d="M42.3846 19.3077H7.76923V6.80769C7.77303 5.53378 8.28078 4.31314 9.18157 3.41234C10.0824 2.51155 11.303 2.0038 12.5769 2H41.4231C42.697 2.0038 43.9176 2.51155 44.8184 3.41234C45.7192 4.31314 46.227 5.53378 46.2308 6.80769V19.3077H42.3846Z" stroke="black" stroke-width="3" stroke-linecap="round" stroke-linejoin="round"/>
<path d="M2 40.4615V27C2.00602 24.9617 2.8184 23.0087 4.25968 21.5674C5.70096 20.1261 7.65403 19.3137 9.69231 19.3077H44.3077C46.346 19.3137 48.299 20.1261 49.7403 21.5674C51.1816 23.0087 51.994 24.9617 52 27V40.4615" stroke="black" stroke-width="3" stroke-linecap="round" stroke-linejoin="round"/>
<path d="M2 40.4615V39.5C2.00222 38.7356 2.30685 38.0032 2.84734 37.4627C3.38783 36.9222 4.12025 36.6176 4.88462 36.6154H49.1154C49.8797 36.6176 50.6122 36.9222 51.1527 37.4627C51.6932 38.0032 51.9978 38.7356 52 39.5V40.4615" stroke="black" stroke-width="3" stroke-linecap="round" stroke-linejoin="round"/>
<path d="M9.69232 19.3077V17.3846C9.69518 16.3654 10.1013 15.3888 10.822 14.6681C11.5427 13.9474 12.5193 13.5413 13.5385 13.5385H23.1539C24.173 13.5413 25.1497 13.9474 25.8703 14.6681C26.591 15.3888 26.9972 16.3654 27 17.3846V19.3077" stroke="black" stroke-width="3" stroke-linecap="round" stroke-linejoin="round"/>
<path d="M27 19.3077V17.3846C27.0029 16.3654 27.409 15.3888 28.1297 14.6681C28.8503 13.9474 29.827 13.5413 30.8462 13.5385H40.4615C41.4807 13.5413 42.4574 13.9474 43.178 14.6681C43.8987 15.3888 44.3048 16.3654 44.3077 17.3846V19.3077" stroke="black" stroke-width="3" stroke-linecap="round" stroke-linejoin="round"/>
</svg>
