<svg width="54" height="50" viewBox="0 0 54 50" fill="none" xmlns="http://www.w3.org/2000/svg">
<path d="M7.35717 7.35718H3.78572C2.7995 7.35718 2 8.15667 2 9.1429V46.6431C2 47.6293 2.7995 48.4288 3.78572 48.4288H7.35717C8.3434 48.4288 9.14289 47.6293 9.14289 46.6431V9.1429C9.14289 8.15667 8.3434 7.35718 7.35717 7.35718Z" stroke="black" stroke-width="3" stroke-linejoin="round"/>
<path d="M10.9286 21.643H25.2144" stroke="black" stroke-width="3" stroke-linecap="round" stroke-linejoin="round"/>
<path d="M10.9286 41.2859H25.2144" stroke="black" stroke-width="3" stroke-linecap="round" stroke-linejoin="round"/>
<path d="M23.4287 14.5001H12.7143C11.7281 14.5001 10.9286 15.2996 10.9286 16.2858V46.6431C10.9286 47.6293 11.7281 48.4288 12.7143 48.4288H23.4287C24.4149 48.4288 25.2144 47.6293 25.2144 46.6431V16.2858C25.2144 15.2996 24.4149 14.5001 23.4287 14.5001Z" stroke="black" stroke-width="3" stroke-linejoin="round"/>
<path d="M35.9287 2H28.7858C27.7996 2 27.0001 2.7995 27.0001 3.78572V46.6431C27.0001 47.6293 27.7996 48.4288 28.7858 48.4288H35.9287C36.915 48.4288 37.7145 47.6293 37.7145 46.6431V3.78572C37.7145 2.7995 36.915 2 35.9287 2Z" stroke="black" stroke-width="3" stroke-linejoin="round"/>
<path d="M45.5783 7.36945L41.0694 7.84378C39.8283 7.97436 38.9287 9.13508 39.0683 10.4219L42.9656 46.3138C43.1062 47.6007 44.2346 48.546 45.4757 48.4165L49.9846 47.9422C51.2257 47.8116 52.1252 46.6509 51.9857 45.3641L48.094 9.47772C47.9478 8.1853 46.8194 7.23887 45.5783 7.36945Z" stroke="black" stroke-width="3" stroke-linejoin="round"/>
</svg>
