<svg width="54" height="43" viewBox="0 0 54 43" fill="none" xmlns="http://www.w3.org/2000/svg">
<path d="M38.363 8.46404L35.1635 3.40875C34.4892 2.62269 33.5649 2.13231 32.5288 2.13231H21.4712C20.4351 2.13231 19.5108 2.62269 18.8365 3.40875L15.637 8.46404C14.9627 9.2513 14.0937 9.82462 13.0577 9.82462H5.84615C4.82609 9.82462 3.84781 10.2298 3.12651 10.9511C2.40522 11.6724 2 12.6507 2 13.6708V36.7477C2 37.7678 2.40522 38.746 3.12651 39.4673C3.84781 40.1886 4.82609 40.5938 5.84615 40.5938H48.1538C49.1739 40.5938 50.1522 40.1886 50.8735 39.4673C51.5948 38.746 52 37.7678 52 36.7477V13.6708C52 12.6507 51.5948 11.6724 50.8735 10.9511C50.1522 10.2298 49.1739 9.82462 48.1538 9.82462H41.0625C40.0228 9.82462 39.0373 9.2513 38.363 8.46404Z" stroke="black" stroke-width="3" stroke-linecap="round" stroke-linejoin="round"/>
<path d="M27 32.9015C32.3105 32.9015 36.6154 28.5966 36.6154 23.2862C36.6154 17.9757 32.3105 13.6708 27 13.6708C21.6896 13.6708 17.3846 17.9757 17.3846 23.2862C17.3846 28.5966 21.6896 32.9015 27 32.9015Z" stroke="black" stroke-width="3" stroke-miterlimit="10"/>
<path d="M11.1346 9.58423V6.94H8.25V9.58423" stroke="black" stroke-width="3" stroke-linecap="round" stroke-linejoin="round"/>
</svg>
