<svg width="54" height="36" viewBox="0 0 54 36" fill="none" xmlns="http://www.w3.org/2000/svg">
<path d="M50.8542 15.6839C50.0361 14.5979 46.9968 13.85 45.711 11.8957C44.4253 9.94132 43.3727 5.70893 40.1002 4.08271C36.8277 2.4565 30.5729 2 27.0012 2C23.4296 2 17.1792 2.44646 13.9022 4.07937C10.6252 5.71228 9.57718 9.94132 8.29139 11.8923C7.0056 13.8433 3.96636 14.5979 3.14823 15.6839C2.3301 16.7699 1.75417 23.6352 2.10464 27.0015C2.4551 30.3678 3.10916 32.359 3.10916 32.359H12.708C14.2795 32.359 14.7907 31.7685 18.0051 31.4661C21.5321 31.1312 24.9922 31.0196 27.0012 31.0196C29.0103 31.0196 32.5819 31.1312 36.1067 31.4661C39.3211 31.7708 39.8491 32.359 41.4039 32.359H50.891C50.891 32.359 51.5451 30.3678 51.8956 27.0015C52.246 23.6352 51.6679 16.7699 50.8542 15.6839Z" stroke="black" stroke-width="3" stroke-linecap="round" stroke-linejoin="round"/>
<path d="M43.0736 32.359H49.324V34.1448H43.0736V32.359Z" stroke="black" stroke-width="3" stroke-linecap="round" stroke-linejoin="round"/>
<path d="M4.67847 32.359H10.9288V34.1448H4.67847V32.359Z" stroke="black" stroke-width="3" stroke-linecap="round" stroke-linejoin="round"/>
<path d="M39.108 24.0058C38.4484 23.2435 36.2987 22.6073 33.4525 22.1809C30.6064 21.7545 29.5684 21.644 27.0236 21.644C24.4788 21.644 23.3213 21.8271 20.5935 22.1809C17.8656 22.5347 15.8175 23.1642 14.9391 24.0058C13.621 25.2827 15.5519 26.7158 17.0676 26.8899C18.5364 27.0573 21.473 26.9959 27.0358 26.9959C32.5987 26.9959 35.5352 27.0573 37.0041 26.8899C38.5176 26.7057 40.3101 25.3719 39.108 24.0058Z" stroke="black" stroke-width="1"/>
<path d="M46.5973 16.627C46.591 16.5383 46.5522 16.4551 46.4884 16.3933C46.4245 16.3315 46.3401 16.2955 46.2513 16.2921C44.9331 16.2453 43.5949 16.339 41.2208 17.0388C40.0096 17.3924 38.8723 17.9619 37.8635 18.7197C37.609 18.9184 37.6994 19.4553 38.0186 19.5122C39.9754 19.7417 41.9439 19.8573 43.9141 19.8582C45.0961 19.8582 46.316 19.5234 46.5426 18.4697C46.6581 17.8622 46.6766 17.2403 46.5973 16.627Z" stroke="black" stroke-width="1"/>
<path d="M7.40515 16.627C7.41142 16.5383 7.4502 16.4551 7.51406 16.3933C7.57792 16.3315 7.66235 16.2955 7.75115 16.2921C9.06931 16.2453 10.4076 16.339 12.7816 17.0388C13.9928 17.3924 15.1301 17.9619 16.1389 18.7197C16.3934 18.9184 16.303 19.4553 15.9838 19.5122C14.027 19.7417 12.0585 19.8573 10.0883 19.8582C8.90636 19.8582 7.68642 19.5234 7.45984 18.4697C7.34433 17.8622 7.32587 17.2403 7.40515 16.627Z" stroke="black" stroke-width="1"/>
<path d="M46.6452 10.9291H48.4311" stroke="black" stroke-width="3" stroke-linecap="round" stroke-linejoin="round"/>
<path d="M5.57141 10.9291H7.35723" stroke="black" stroke-width="3" stroke-linecap="round" stroke-linejoin="round"/>
<path d="M7.13391 13.0498C7.13391 13.0498 12.3072 11.7104 27.0012 11.7104C41.6951 11.7104 46.8684 13.0498 46.8684 13.0498" stroke="black" stroke-width="3" stroke-linecap="round" stroke-linejoin="round"/>
</svg>
