<svg width="25" height="24" viewBox="0 0 25 24" fill="none" xmlns="http://www.w3.org/2000/svg">
<path d="M10.7139 21C10.7139 21.5523 10.2662 22 9.71387 22C9.16158 22 8.71387 21.5523 8.71387 21C8.71387 20.4477 9.16158 20 9.71387 20C10.2662 20 10.7139 20.4477 10.7139 21Z" fill="#0D0D0D"/>
<path d="M18.7139 21C18.7139 21.5523 18.2662 22 17.7139 22C17.1616 22 16.7139 21.5523 16.7139 21C16.7139 20.4477 17.1616 20 17.7139 20C18.2662 20 18.7139 20.4477 18.7139 21Z" fill="#0D0D0D"/>
<path fill-rule="evenodd" clip-rule="evenodd" d="M5.95367 3.34626C5.86552 2.85138 5.82144 2.60394 5.69168 2.42114C5.59226 2.28109 5.45845 2.16901 5.30314 2.0957C5.10042 2 4.84909 2 4.34642 2H3.21387C2.93772 2 2.71387 2.22386 2.71387 2.5C2.71387 2.77614 2.93772 3 3.21387 3H4.23444C4.43875 3 4.5409 3 4.62605 3.03205C4.73044 3.07134 4.81869 3.1444 4.87677 3.23962C4.92415 3.31729 4.94322 3.41765 4.98136 3.61837L7.4048 16.3733C7.55265 17.1515 7.62657 17.5406 7.90405 17.7703C8.18153 18 8.57757 18 9.36965 18H18.1523C18.9023 18 19.2772 18 19.5485 17.7882C19.8198 17.5764 19.9107 17.2126 20.0926 16.4851L22.0926 8.48507C22.3786 7.34114 22.5216 6.76918 22.2213 6.38459C21.921 6 21.3315 6 20.1523 6H6.42637L5.95367 3.34626ZM20.1828 7C20.7744 7 21.0702 7 21.2203 7.19302C21.3705 7.38604 21.2977 7.67273 21.1521 8.2461L19.1208 16.2461C19.0288 16.6083 18.9828 16.7893 18.8474 16.8947C18.712 17 18.5252 17 18.1515 17H9.38694C8.99305 17 8.7961 17 8.65766 16.8861C8.51921 16.7721 8.48134 16.5788 8.4056 16.1923L6.8381 8.19228C6.72998 7.64043 6.67591 7.3645 6.82592 7.18225C6.97592 7 7.2571 7 7.81944 7H20.1828Z" fill="#0D0D0D"/>
</svg>
