<svg width="54" height="50" viewBox="0 0 54 50" fill="none" xmlns="http://www.w3.org/2000/svg">
<path d="M33.5357 2C33.5357 2 30.9933 2.89286 27 2.89286C23.0067 2.89286 20.4643 2 20.4643 2C20.0625 2.00001 19.6637 2.06793 19.2846 2.20089L2 8.25L3.85603 18.0714L9.31138 18.6875C9.97946 18.7631 10.5947 19.0872 11.0349 19.5954C11.475 20.1036 11.708 20.7588 11.6875 21.4308L10.9286 48.4286H43.0714L42.3125 21.4308C42.292 20.7588 42.525 20.1036 42.9651 19.5954C43.4053 19.0872 44.0205 18.7631 44.6886 18.6875L50.144 18.0714L52 8.25L34.7154 2.20089C34.3363 2.06793 33.9375 2.00001 33.5357 2Z" stroke="black" stroke-width="3" stroke-linecap="round" stroke-linejoin="round"/>
<path d="M35.6283 2.52008C35.1223 4.42205 34.0019 6.1035 32.4415 7.30299C30.8811 8.50248 28.9681 9.15279 27 9.15279C25.0318 9.15279 23.1188 8.50248 21.5585 7.30299C19.9981 6.1035 18.8777 4.42205 18.3716 2.52008" stroke="black" stroke-width="3" stroke-linecap="round" stroke-linejoin="round"/>
</svg>
