<svg width="54" height="54" viewBox="0 0 54 54" fill="none" xmlns="http://www.w3.org/2000/svg">
<path d="M18.3462 27C19.9393 27 21.2308 25.7085 21.2308 24.1154C21.2308 22.5223 19.9393 21.2308 18.3462 21.2308C16.753 21.2308 15.4615 22.5223 15.4615 24.1154C15.4615 25.7085 16.753 27 18.3462 27Z" stroke="black" stroke-width="3"/>
<path d="M27.006 42.3846C21.5469 42.3846 16.9555 38.8354 15.5024 33.9916C15.4617 33.8475 15.4553 33.6958 15.4837 33.5488C15.512 33.4017 15.5743 33.2633 15.6656 33.1446C15.7569 33.0258 15.8746 32.9301 16.0095 32.8649C16.1443 32.7998 16.2925 32.767 16.4423 32.7692H37.5589C37.7086 32.767 37.8568 32.7998 37.9917 32.8649C38.1265 32.9301 38.2443 33.0258 38.3356 33.1446C38.4269 33.2633 38.4892 33.4017 38.5175 33.5488C38.5458 33.6958 38.5394 33.8475 38.4988 33.9916C37.0577 38.8354 32.4651 42.3846 27.006 42.3846Z" stroke="black" stroke-width="3"/>
<path d="M35.6538 27C37.247 27 38.5385 25.7085 38.5385 24.1154C38.5385 22.5223 37.247 21.2308 35.6538 21.2308C34.0607 21.2308 32.7692 22.5223 32.7692 24.1154C32.7692 25.7085 34.0607 27 35.6538 27Z" stroke="black" stroke-width="3"/>
<path d="M27 52C40.8071 52 52 40.8071 52 27C52 13.1929 40.8071 2 27 2C13.1929 2 2 13.1929 2 27C2 40.8071 13.1929 52 27 52Z" stroke="black" stroke-width="3" stroke-miterlimit="10"/>
</svg>
