<svg width="54" height="54" viewBox="0 0 54 54" fill="none" xmlns="http://www.w3.org/2000/svg">
<path d="M4.84397 3.75673L45.9642 44.8769C46.7444 45.6572 47.1827 46.7155 47.1827 47.819C47.1827 48.9224 46.7444 49.9807 45.9642 50.761C45.1837 51.5409 44.1255 51.9791 43.0222 51.9791C41.9188 51.9791 40.8606 51.5409 40.0801 50.761L30.0353 40.5431C29.3779 39.8756 29.0092 38.9766 29.0085 38.0398V37.4226C29.0086 36.9495 28.9147 36.4812 28.7323 36.0447C28.5499 35.6083 28.2826 35.2124 27.946 34.8801L26.6491 33.6825C26.2088 33.2763 25.6734 32.9873 25.0922 32.8422C24.511 32.6971 23.9027 32.7005 23.3231 32.8522C22.4092 33.0907 21.4489 33.0861 20.5373 32.8388C19.6257 32.5915 18.7947 32.1102 18.1266 31.4425L8.59181 21.9066C2.93545 16.2503 0.853939 7.70881 4.84397 3.75673Z" stroke="black" stroke-width="3" stroke-linejoin="round"/>
<path d="M43.0713 2L34.4495 10.6218C33.786 11.2851 33.2597 12.0726 32.9007 12.9394C32.5416 13.8061 32.3568 14.7351 32.3568 15.6733V17.3318C32.3568 17.5664 32.3106 17.7988 32.2208 18.0156C32.131 18.2324 31.9993 18.4293 31.8333 18.5952L30.571 19.8575" stroke="black" stroke-width="3" stroke-linecap="round" stroke-linejoin="round"/>
<path d="M34.1425 23.429L35.4048 22.1667C35.5707 22.0007 35.7676 21.869 35.9844 21.7792C36.2012 21.6894 36.4336 21.6432 36.6682 21.6432H38.3267C39.2649 21.6432 40.1939 21.4584 41.0606 21.0994C41.9274 20.7403 42.7149 20.214 43.3782 19.5506L52 10.9287" stroke="black" stroke-width="3" stroke-linecap="round" stroke-linejoin="round"/>
<path d="M47.5356 6.46437L38.6069 15.3931" stroke="black" stroke-width="3" stroke-linecap="round" stroke-linejoin="round"/>
<path d="M20.7494 39.5007L9.61973 50.6929C8.78253 51.5298 7.64721 52 6.46342 52C5.27963 52 4.1443 51.5298 3.30711 50.6929C2.47017 49.8557 2 48.7204 2 47.5366C2 46.3528 2.47017 45.2175 3.30711 44.3803L12.7135 35.0363" stroke="black" stroke-width="3" stroke-linecap="round" stroke-linejoin="round"/>
</svg>
