<svg width="54" height="50" viewBox="0 0 54 50" fill="none" xmlns="http://www.w3.org/2000/svg">
<path d="M7.35718 20.3016V46.6409C7.35718 47.1145 7.54532 47.5687 7.8802 47.9036C8.21509 48.2385 8.66929 48.4266 9.14289 48.4266H19.8572V33.248C19.8572 32.5376 20.1394 31.8563 20.6417 31.354C21.144 30.8517 21.8253 30.5695 22.5358 30.5695H31.4643C32.1747 30.5695 32.856 30.8517 33.3584 31.354C33.8607 31.8563 34.1429 32.5376 34.1429 33.248V48.4266H44.8572C45.3308 48.4266 45.785 48.2385 46.1199 47.9036C46.4548 47.5687 46.6429 47.1145 46.6429 46.6409V20.3016" stroke="black" stroke-width="3" stroke-linecap="round" stroke-linejoin="round"/>
<path d="M52 25.2123L28.2154 2.44448C27.6574 1.85519 26.3527 1.8485 25.7846 2.44448L2 25.2123" stroke="black" stroke-width="3" stroke-linecap="round" stroke-linejoin="round"/>
<path d="M43.0714 16.6186V3.78377H37.7143V11.4847" stroke="black" stroke-width="3" stroke-linecap="round" stroke-linejoin="round"/>
</svg>
