<svg width="24" height="24" viewBox="0 0 24 24" fill="none" xmlns="http://www.w3.org/2000/svg">
<path d="M11.9836 18C15.129 18 17.7091 15.5797 17.9631 12.4998C17.9858 12.2246 18.2074 12 18.4836 12C18.7597 12 18.9854 12.2246 18.966 12.5C18.7561 15.4746 16.6876 17.936 13.9149 18.7302C13.3262 18.8988 13.0318 18.9831 12.8848 19.093C12.7078 19.2254 12.6272 19.3322 12.5487 19.5389C12.4836 19.7104 12.4836 19.953 12.4836 20.438V20.75C12.4836 20.9823 12.4836 21.0985 12.5028 21.1951C12.5817 21.5918 12.8918 21.9019 13.2885 21.9808C13.3851 22 13.5013 22 13.7336 22H14.4836C14.7597 22 14.9836 22.2239 14.9836 22.5C14.9836 22.7761 14.7597 23 14.4836 23H9.48358C9.20744 23 8.98358 22.7761 8.98358 22.5C8.98358 22.2239 9.20744 22 9.48358 22H10.2336C10.4659 22 10.5821 22 10.6787 21.9808C11.0754 21.9019 11.3855 21.5918 11.4644 21.1951C11.4836 21.0985 11.4836 20.9823 11.4836 20.75V20.438C11.4836 19.953 11.4836 19.7104 11.4184 19.5389C11.3399 19.3322 11.2594 19.2254 11.0823 19.093C10.9354 18.9831 10.641 18.8988 10.0523 18.7302C7.27953 17.936 5.21112 15.4746 5.00117 12.5C4.98173 12.2246 5.20744 12 5.48358 12C5.75973 12 5.98141 12.2246 6.00411 12.4998C6.25811 15.5797 8.8382 18 11.9836 18Z" fill="#4285F4"/>
<path fill-rule="evenodd" clip-rule="evenodd" d="M7.98358 5C7.98358 2.79086 9.77444 1 11.9836 1C14.1927 1 15.9836 2.79086 15.9836 5V12C15.9836 14.2091 14.1927 16 11.9836 16C9.77444 16 7.98358 14.2091 7.98358 12V5ZM11.9836 2C10.3267 2 8.98358 3.34315 8.98358 5V12C8.98358 13.6569 10.3267 15 11.9836 15C13.6404 15 14.9836 13.6569 14.9836 12V5C14.9836 3.34315 13.6404 2 11.9836 2Z" fill="#4285F4"/>
</svg>
