<svg width="54" height="54" viewBox="0 0 54 54" fill="none" xmlns="http://www.w3.org/2000/svg">
<path d="M39.2672 4.67433C40.2032 3.73828 40.6698 3.27168 41.1364 2.95871C42.0721 2.33363 43.1721 2 44.2974 2C45.4226 2 46.5226 2.33363 47.4583 2.95871C47.9249 3.27168 48.3915 3.73828 49.3276 4.67433C50.2608 5.60753 50.7274 6.07697 51.0403 6.54073C51.666 7.4767 52 8.57725 52 9.70309C52 10.8289 51.666 11.9295 51.0403 12.8654C50.7274 13.3292 50.2608 13.7987 49.3276 14.7319L18.5035 45.556C17.7523 46.3099 17.3739 46.6855 16.9386 46.9842C16.5005 47.283 16.014 47.4963 15.0409 47.9231L12.4234 49.0754C6.77299 51.562 3.94494 52.8054 2.57074 51.4312C1.1937 50.0541 2.43702 47.2289 4.92366 41.5756L6.07594 38.9581C6.50271 37.9851 6.71893 37.4986 7.01483 37.0633C7.31641 36.6251 7.69197 36.2496 8.44593 35.4984L39.2672 4.67433Z" stroke="black" stroke-width="3" stroke-linecap="round"/>
<path d="M31.463 12.3761L41.5234 22.4365" stroke="black" stroke-width="3"/>
</svg>
