<svg width="25" height="24" viewBox="0 0 25 24" fill="none" xmlns="http://www.w3.org/2000/svg">
<path fill-rule="evenodd" clip-rule="evenodd" d="M22.5 10C22.5 7.17157 22.5 5.75736 21.6213 4.87868C20.7426 4 19.3284 4 16.5 4H8.5C5.67157 4 4.25736 4 3.37868 4.87868C2.5 5.75736 2.5 7.17157 2.5 10V14C2.5 16.8284 2.5 18.2426 3.37868 19.1213C4.25736 20 5.67157 20 8.5 20H16.5C19.3284 20 20.7426 20 21.6213 19.1213C22.5 18.2426 22.5 16.8284 22.5 14V10ZM21.5 9C21.5 7.11438 21.5 6.17157 20.9142 5.58579C20.3284 5 19.3856 5 17.5 5H7.5C5.61438 5 4.67157 5 4.08579 5.58579C3.5 6.17157 3.5 7.11438 3.5 9V15C3.5 16.8856 3.5 17.8284 4.08579 18.4142C4.67157 19 5.61438 19 7.5 19H17.5C19.3856 19 20.3284 19 20.9142 18.4142C21.5 17.8284 21.5 16.8856 21.5 15V9Z" fill="#0D0D0D"/>
<path d="M11.1974 11.1801C11.8189 11.7144 12.1296 11.9816 12.5001 11.9818C12.8706 11.9819 13.1816 11.7151 13.8036 11.1813L19.1186 6.62054C19.3236 6.44464 19.5999 6.40066 19.7918 6.59079C19.9816 6.77888 20.0367 7.15069 19.8351 7.32596L15.1255 11.4185C13.8739 12.5061 13.2482 13.0499 12.5002 13.0496C11.7523 13.0494 11.1269 12.5052 9.87604 11.4168L5.1963 7.34468C4.97687 7.15374 4.96518 6.81684 5.17087 6.61116C5.35652 6.42551 5.65387 6.41431 5.85296 6.58547L11.1974 11.1801Z" fill="#0D0D0D"/>
</svg>
