<svg width="24" height="24" viewBox="0 0 24 24" fill="none" xmlns="http://www.w3.org/2000/svg">
<path d="M7 8C7 5.23858 9.23858 3 12 3C14.7614 3 17 5.23858 17 8V12H16V8C16 5.79086 14.2091 4 12 4C9.79086 4 8 5.79086 8 8V12H7V8Z" fill="#0D0D0D"/>
<path fill-rule="evenodd" clip-rule="evenodd" d="M5 17C5 18.8856 5 19.8284 5.58579 20.4142C6.17157 21 7.11438 21 9 21H15C16.8856 21 17.8284 21 18.4142 20.4142C19 19.8284 19 18.8856 19 17V15C19 13.1144 19 12.1716 18.4142 11.5858C17.8284 11 16.8856 11 15 11H9C7.11438 11 6.17157 11 5.58579 11.5858C5 12.1716 5 13.1144 5 15V17ZM8 12C7.05719 12 6.58579 12 6.29289 12.2929C6 12.5858 6 13.0572 6 14V18C6 18.9428 6 19.4142 6.29289 19.7071C6.58579 20 7.05719 20 8 20H16C16.9428 20 17.4142 20 17.7071 19.7071C18 19.4142 18 18.9428 18 18V14C18 13.0572 18 12.5858 17.7071 12.2929C17.4142 12 16.9428 12 16 12H8Z" fill="#0D0D0D"/>
<path d="M12.5 17.5V14.5C12.5 14.2239 12.2761 14 12 14C11.7239 14 11.5 14.2239 11.5 14.5V17.5C11.5 17.7761 11.7239 18 12 18C12.2761 18 12.5 17.7761 12.5 17.5Z" fill="#0D0D0D"/>
</svg>
