<svg width="54" height="47" viewBox="0 0 54 47" fill="none" xmlns="http://www.w3.org/2000/svg">
<path d="M49.5155 13.8416C49.1189 13.6855 48.6962 13.606 48.27 13.6072H48.2254C45.9742 13.6407 43.4497 15.7489 42.1249 18.9376C40.5367 22.7523 41.2678 26.6552 43.77 27.6586C44.1663 27.8146 44.5885 27.8941 45.0144 27.8929C47.2767 27.8929 49.8359 25.7724 51.1718 22.5626C52.7488 18.7478 52.0066 14.8449 49.5155 13.8416Z" stroke="black" stroke-width="3" stroke-miterlimit="10"/>
<path d="M34.991 28.7277C31.8883 23.5793 30.549 21.6429 26.9999 21.6429C23.4507 21.6429 22.1003 23.5916 18.9976 28.7277C16.3414 33.1206 10.973 33.4867 9.63375 37.2177C9.36204 37.9011 9.22559 38.6307 9.23196 39.3661C9.23196 42.4007 11.5534 44.8572 14.4105 44.8572C17.9597 44.8572 22.7923 42.0235 27.011 42.0235C31.2298 42.0235 36.0401 44.8572 39.5892 44.8572C42.4463 44.8572 44.7566 42.4019 44.7566 39.3661C44.7592 38.63 44.6189 37.9004 44.3437 37.2177C43.0044 33.4733 37.6472 33.1206 34.991 28.7277Z" stroke="black" stroke-width="3" stroke-miterlimit="10"/>
<path d="M19.9139 16.7322C20.0634 16.7323 20.2126 16.7211 20.3604 16.6987C22.9508 16.3226 24.568 12.7333 23.9809 8.67971C23.4285 4.85827 21.1093 2 18.684 2C18.5346 1.99988 18.3853 2.01107 18.2376 2.03348C15.6472 2.4096 14.03 5.99889 14.617 10.0525C15.1695 13.8628 17.4887 16.7322 19.9139 16.7322Z" stroke="black" stroke-width="3" stroke-miterlimit="10"/>
<path d="M39.3794 10.0525C39.9664 5.99889 38.3492 2.4096 35.7588 2.03348C35.6111 2.01107 35.4618 1.99988 35.3124 2C32.8872 2 30.5724 4.85827 30.0188 8.67971C29.4318 12.7333 31.049 16.3226 33.6394 16.6987C33.7871 16.7211 33.9364 16.7323 34.0858 16.7322C36.511 16.7322 38.8303 13.8628 39.3794 10.0525Z" stroke="black" stroke-width="3" stroke-miterlimit="10"/>
<path d="M10.2331 27.6586C12.732 26.6541 13.4619 22.7478 11.8759 18.9376C10.5411 15.7277 7.98419 13.6072 5.72525 13.6072C5.29936 13.606 4.87711 13.6855 4.48083 13.8416C1.98194 14.846 1.25203 18.7523 2.83797 22.5626C4.17279 25.7724 6.72972 27.8929 8.98865 27.8929C9.41454 27.8941 9.83679 27.8146 10.2331 27.6586Z" stroke="black" stroke-width="3" stroke-miterlimit="10"/>
</svg>
