<svg width="54" height="62" viewBox="0 0 54 62" fill="none" xmlns="http://www.w3.org/2000/svg">
<path d="M39.5 14.585C35.2995 14.2087 31.1667 16.6684 27 16.6684C22.8333 16.6684 18.6992 14.1944 14.5 14.585C6.16667 15.3663 2 22.9184 2 35.4184C2 45.835 10.3333 60.4184 16.4792 60.4184C22.625 60.4184 23.2422 57.2934 27 57.2934C30.7578 57.2934 31.3737 60.4184 37.5208 60.4184C43.668 60.4184 52 45.835 52 35.4184C52 22.9184 48.224 15.3663 39.5 14.585Z" stroke="black" stroke-width="3" stroke-miterlimit="10"/>
<path d="M35.8438 8.74389C33.1094 11.4783 29.8984 12.2595 28.1849 12.4926C28.0282 12.5152 27.8685 12.5018 27.7178 12.4534C27.5671 12.405 27.4294 12.3228 27.3152 12.2133C27.2009 12.1037 27.1132 11.9695 27.0586 11.821C27.004 11.6724 26.9839 11.5133 27 11.3559C27.3091 8.42691 28.6258 5.69623 30.7253 3.63061C33.5898 0.766028 36.7148 0.128008 38.3711 0.00430998C38.5257 -0.00979896 38.6815 0.0108344 38.8272 0.0647007C38.9728 0.118567 39.1045 0.204304 39.2127 0.315639C39.3209 0.426975 39.4029 0.561093 39.4526 0.708182C39.5023 0.855272 39.5185 1.01161 39.5 1.16577C39.1731 4.03253 37.8842 6.70387 35.8438 8.74389Z" stroke="black" stroke-width="3"/>
<path d="M21.7917 43.7517C23.5176 43.7517 24.9167 40.9535 24.9167 37.5017C24.9167 34.0499 23.5176 31.2517 21.7917 31.2517C20.0658 31.2517 18.6667 34.0499 18.6667 37.5017C18.6667 40.9535 20.0658 43.7517 21.7917 43.7517Z" stroke="black" stroke-width="3"/>
<path d="M32.2083 43.7517C33.9342 43.7517 35.3333 40.9535 35.3333 37.5017C35.3333 34.0499 33.9342 31.2517 32.2083 31.2517C30.4825 31.2517 29.0833 34.0499 29.0833 37.5017C29.0833 40.9535 30.4825 43.7517 32.2083 43.7517Z" stroke="black" stroke-width="3"/>
</svg>
