<svg width="54" height="54" viewBox="0 0 54 54" fill="none" xmlns="http://www.w3.org/2000/svg">
<path d="M27 52C40.8071 52 52 40.8071 52 27C52 13.1929 40.8071 2 27 2C13.1929 2 2 13.1929 2 27C2 40.8071 13.1929 52 27 52Z" stroke="black" stroke-width="3" stroke-miterlimit="10" stroke-linecap="round"/>
<path d="M27 16.4727L17.0925 24.7839L19.7084 35.3333H27H34.2917L36.9076 24.7839L27 16.4727Z" stroke="black" stroke-width="3" stroke-linecap="round" stroke-linejoin="round"/>
<path d="M36.9076 24.7839L43.7917 21.8672L47.1485 12.3281" stroke="black" stroke-width="3" stroke-linecap="round" stroke-linejoin="round"/>
<path d="M51.8698 28.819L43.7917 21.8672" stroke="black" stroke-width="3" stroke-linecap="round" stroke-linejoin="round"/>
<path d="M17.0924 24.7839L10.2083 21.8672L6.85156 12.3281" stroke="black" stroke-width="3" stroke-linecap="round" stroke-linejoin="round"/>
<path d="M2.13025 28.819L10.2084 21.8672" stroke="black" stroke-width="3" stroke-linecap="round" stroke-linejoin="round"/>
<path d="M27 16.4727V8.97656L35.3333 3.42448" stroke="black" stroke-width="3" stroke-linecap="round" stroke-linejoin="round"/>
<path d="M18.6667 3.42318L27 8.97656" stroke="black" stroke-width="3" stroke-linecap="round" stroke-linejoin="round"/>
<path d="M34.2917 35.3333L37.9375 41.5833L34.2917 50.8281" stroke="black" stroke-width="3" stroke-linecap="round" stroke-linejoin="round"/>
<path d="M47.1485 41.5833H38.1979" stroke="black" stroke-width="3" stroke-linecap="round" stroke-linejoin="round"/>
<path d="M19.7083 35.3333L16.0625 41.5833L19.7565 50.8932" stroke="black" stroke-width="3" stroke-linecap="round" stroke-linejoin="round"/>
<path d="M6.89978 41.5833H16.0625" stroke="black" stroke-width="3" stroke-linecap="round" stroke-linejoin="round"/>
</svg>
