<svg width="54" height="60" viewBox="0 0 54 60" fill="none" xmlns="http://www.w3.org/2000/svg">
<path d="M2 14.5C2 8.60625 2 5.6625 3.83125 3.83125C5.6625 2 8.60625 2 14.5 2H39.5C45.3938 2 48.3375 2 50.1687 3.83125C52 5.6625 52 8.60625 52 14.5V45.75C52 51.6438 52 54.5875 50.1687 56.4187C48.3375 58.25 45.3938 58.25 39.5 58.25H14.5C8.60625 58.25 5.6625 58.25 3.83125 56.4187C2 54.5875 2 51.6438 2 45.75V14.5Z" stroke="black" stroke-width="3"/>
<path d="M2 20.75H52M2 39.5H52" stroke="black" stroke-width="3" stroke-linecap="round"/>
<path d="M17.625 30.125C17.625 30.9538 17.2958 31.7487 16.7097 32.3347C16.1237 32.9208 15.3288 33.25 14.5 33.25C13.6712 33.25 12.8763 32.9208 12.2903 32.3347C11.7042 31.7487 11.375 30.9538 11.375 30.125C11.375 29.2962 11.7042 28.5013 12.2903 27.9153C12.8763 27.3292 13.6712 27 14.5 27C15.3288 27 16.1237 27.3292 16.7097 27.9153C17.2958 28.5013 17.625 29.2962 17.625 30.125ZM17.625 11.375C17.625 12.2038 17.2958 12.9987 16.7097 13.5847C16.1237 14.1708 15.3288 14.5 14.5 14.5C13.6712 14.5 12.8763 14.1708 12.2903 13.5847C11.7042 12.9987 11.375 12.2038 11.375 11.375C11.375 10.5462 11.7042 9.75134 12.2903 9.16529C12.8763 8.57924 13.6712 8.25 14.5 8.25C15.3288 8.25 16.1237 8.57924 16.7097 9.16529C17.2958 9.75134 17.625 10.5462 17.625 11.375ZM17.625 48.875C17.625 49.7038 17.2958 50.4987 16.7097 51.0847C16.1237 51.6708 15.3288 52 14.5 52C13.6712 52 12.8763 51.6708 12.2903 51.0847C11.7042 50.4987 11.375 49.7038 11.375 48.875C11.375 48.0462 11.7042 47.2513 12.2903 46.6653C12.8763 46.0792 13.6712 45.75 14.5 45.75C15.3288 45.75 16.1237 46.0792 16.7097 46.6653C17.2958 47.2513 17.625 48.0462 17.625 48.875Z" stroke="black" stroke-width="3"/>
</svg>
