<svg width="54" height="46" viewBox="0 0 54 46" fill="none" xmlns="http://www.w3.org/2000/svg">
<path d="M38.649 2C30.8461 2 27 9.69231 27 9.69231C27 9.69231 23.1538 2 15.3509 2C9.00958 2 3.98795 7.30529 3.92304 13.6358C3.79083 26.7764 14.3473 36.1214 25.9182 43.9748C26.2372 44.1918 26.6141 44.3078 27 44.3078C27.3858 44.3078 27.7627 44.1918 28.0817 43.9748C39.6514 36.1214 50.2079 26.7764 50.0769 13.6358C50.012 7.30529 44.9904 2 38.649 2Z" stroke="black" stroke-width="3" stroke-linecap="round" stroke-linejoin="round"/>
<path d="M2 23.1538H15.4615L21.2308 11.6154L27 30.8462L32.7692 19.3077L36.6154 27H52" stroke="black" stroke-width="3" stroke-linecap="round" stroke-linejoin="round"/>
</svg>
