<svg width="54" height="40" viewBox="0 0 54 40" fill="none" xmlns="http://www.w3.org/2000/svg">
<path d="M50.6059 19.0573C48.5523 9.77367 45.5065 3.85173 40.6247 2.40864C39.6793 2.13283 38.6989 1.99524 37.714 2.00015C34.7129 2.00015 32.3445 3.78588 26.9996 3.78588C21.6547 3.78588 19.2819 2.00015 16.2852 2.00015C15.2592 1.99484 14.2375 2.13232 13.2495 2.40864C8.36101 3.85173 5.34088 9.77925 3.26385 19.0573C1.14329 28.5339 1.52723 36.0217 5.67236 37.4592C8.57418 38.4637 11.1691 36.3867 13.6267 33.3297C16.4169 29.8475 19.8533 28.7761 26.9996 28.7761C34.1459 28.7761 37.4484 29.8475 40.243 33.3297C42.6984 36.3889 45.3893 38.4403 48.2141 37.4771C52.7923 35.9135 52.7276 28.6455 50.6059 19.0573Z" stroke="black" stroke-width="3" stroke-miterlimit="10"/>
<path d="M31.0174 18.5182C32.2502 18.5182 33.2496 17.5188 33.2496 16.286C33.2496 15.0532 32.2502 14.0539 31.0174 14.0539C29.7847 14.0539 28.7853 15.0532 28.7853 16.286C28.7853 17.5188 29.7847 18.5182 31.0174 18.5182Z" stroke="black" stroke-width="3"/>
<path d="M35.9283 23.4289C35.4865 23.4289 35.0548 23.2979 34.6876 23.0524C34.3204 22.8068 34.0343 22.4579 33.8655 22.0497C33.6967 21.6415 33.6528 21.1924 33.7394 20.7593C33.826 20.3261 34.0391 19.9284 34.3519 19.6164C34.6646 19.3045 35.0629 19.0923 35.4962 19.0068C35.9296 18.9213 36.3786 18.9663 36.7864 19.1361C37.1941 19.3059 37.5424 19.5929 37.787 19.9607C38.0316 20.3285 38.1615 20.7606 38.1604 21.2024C38.159 21.7934 37.9231 22.3597 37.5047 22.7771C37.0862 23.1945 36.5193 23.429 35.9283 23.4289Z" stroke="black" stroke-width="3"/>
<path d="M35.9283 13.6074C37.1611 13.6074 38.1604 12.608 38.1604 11.3752C38.1604 10.1425 37.1611 9.14308 35.9283 9.14308C34.6955 9.14308 33.6961 10.1425 33.6961 11.3752C33.6961 12.608 34.6955 13.6074 35.9283 13.6074Z" stroke="black" stroke-width="3"/>
<path d="M40.839 18.5182C42.0718 18.5182 43.0712 17.5188 43.0712 16.286C43.0712 15.0532 42.0718 14.0539 40.839 14.0539C39.6062 14.0539 38.6069 15.0532 38.6069 16.286C38.6069 17.5188 39.6062 18.5182 40.839 18.5182Z" stroke="black" stroke-width="3"/>
<path d="M16.2852 10.9288V21.6432" stroke="black" stroke-width="3" stroke-linecap="round" stroke-linejoin="round"/>
<path d="M21.6424 16.286H10.928" stroke="black" stroke-width="3" stroke-linecap="round" stroke-linejoin="round"/>
</svg>
