<svg width="24" height="24" viewBox="0 0 24 24" fill="none" xmlns="http://www.w3.org/2000/svg">
<path fill-rule="evenodd" clip-rule="evenodd" d="M12 2C12 2 11.7307 1.92704 11.5388 2.25624L8.54021 7.39923C8.4699 7.51983 8.35208 7.60534 8.21555 7.63487L2.39268 8.89451C2.01996 8.97514 1.87285 9.42744 2.12694 9.71152L6.0966 14.1497C6.18968 14.2538 6.23468 14.3921 6.2206 14.531L5.62045 20.4525C5.58203 20.8315 5.96717 21.111 6.31615 20.9574L11.7681 18.5574C11.8959 18.5011 12 18.5092 12 18.5092V18.0092L12 10L12 2.25624V2Z" fill="#FFB900"/>
<path fill-rule="evenodd" clip-rule="evenodd" d="M12 2.00683C12 2.00683 12.2693 1.9339 12.4612 2.26297L15.4598 7.40402C15.5301 7.52457 15.6479 7.61004 15.7844 7.63957L21.6073 8.89873C21.98 8.97933 22.1271 9.43146 21.8731 9.71543L17.9034 14.1519C17.8103 14.256 17.7653 14.3943 17.7794 14.5331L18.3796 20.4523C18.418 20.8312 18.0328 21.1106 17.6839 20.9571L12.2319 18.5579C12.1041 18.5017 12 18.5097 12 18.5097V18.0099L12 10.0038L12 2.26297V2.00683Z" fill="#B9B9B9"/>
</svg>
