<svg width="24" height="24" viewBox="0 0 24 24" fill="none" xmlns="http://www.w3.org/2000/svg" >
<path fill-rule="evenodd" clip-rule="evenodd" d="M12.4483 2.24835C12.2554 1.91722 11.777 1.91722 11.5842 2.24835L8.57102 7.42161C8.50037 7.54291 8.38198 7.62892 8.24479 7.65863L2.39361 8.92569C2.01908 9.00679 1.87126 9.46175 2.12658 9.74751L6.11553 14.2118C6.20906 14.3165 6.25428 14.4557 6.24014 14.5953L5.63707 20.5517C5.59846 20.9329 5.98548 21.2141 6.33615 21.0596L11.8146 18.6454C11.9431 18.5888 12.0894 18.5888 12.2179 18.6454L17.6963 21.0596C18.047 21.2141 18.434 20.9329 18.3954 20.5517L17.7923 14.5953C17.7782 14.4557 17.8234 14.3165 17.9169 14.2118L21.9059 9.74751C22.1612 9.46175 22.0134 9.00679 21.6388 8.92569L15.7877 7.65863C15.6505 7.62892 15.5321 7.54291 15.4614 7.42161L12.4483 2.24835ZM14.8356 9.39693C14.5287 9.34761 14.2622 9.15837 14.1145 8.88487L12.1043 5.16358C12.0665 5.09357 11.966 5.09362 11.9283 5.16367L9.92146 8.88825C9.77722 9.15596 9.519 9.34349 9.21979 9.39782L5.06391 10.1525C4.98559 10.1667 4.95448 10.2623 5.00941 10.3199L7.93196 13.3848C8.13959 13.6025 8.23815 13.9022 8.20031 14.2007L7.66649 18.4111C7.65649 18.49 7.73816 18.5485 7.80962 18.5135L11.5864 16.6667C11.8582 16.5338 12.1756 16.5311 12.4496 16.6594L16.3063 18.4647C16.3784 18.4984 16.4592 18.4385 16.4477 18.3597L15.8415 14.1983C15.7981 13.9003 15.8912 13.5986 16.0951 13.377L18.997 10.2229C19.0509 10.1642 19.0179 10.0691 18.9392 10.0564L14.8356 9.39693Z" stroke="#0D0D0D" stroke-width="1.5"/>
</svg>
